<?xml version="1.0" standalone="no"?>
<!DOCTYPE svg PUBLIC "-//W3C//DTD SVG 20010904//EN"
 "http://www.w3.org/TR/2001/REC-SVG-20010904/DTD/svg10.dtd">
<svg version="1.0" xmlns="http://www.w3.org/2000/svg"
 width="762.000000pt" height="392.000000pt" viewBox="0 0 762.000000 392.000000"
 preserveAspectRatio="xMidYMid meet">

<g transform="translate(0.000000,392.000000) scale(0.100000,-0.100000)"
fill="#000000" stroke="none">
<path d="M2990 3644 c-190 -51 -310 -97 -337 -132 -16 -19 -17 -58 -2 -67 6
-4 49 12 96 36 78 38 87 41 98 26 15 -20 21 -104 40 -492 15 -318 20 -364 41
-372 7 -2 27 6 44 19 30 21 32 26 26 68 -34 253 -63 769 -46 815 8 21 87 55
127 55 24 0 66 38 57 52 -8 12 -82 8 -144 -8z"/>
<path d="M3291 3646 c-7 -8 -13 -51 -15 -98 -3 -100 -21 -297 -43 -472 l-16
-129 24 -18 c23 -18 24 -18 41 4 11 15 18 50 22 117 5 68 13 107 28 139 46 92
115 130 140 75 9 -20 8 -42 -5 -107 -23 -112 -22 -150 6 -183 34 -40 68 -27
150 57 38 38 72 69 77 69 4 0 11 -17 15 -37 7 -42 40 -83 65 -83 31 0 108 31
126 51 24 27 53 24 64 -6 14 -37 51 -51 92 -35 35 15 59 37 104 95 39 52 59
47 59 -15 0 -66 35 -105 92 -102 21 2 45 9 54 17 8 8 19 15 23 15 10 0 97 72
143 118 18 18 33 42 33 53 0 22 -3 20 -81 -53 -37 -35 -115 -85 -142 -92 -15
-3 -36 -2 -47 4 -33 18 -30 27 56 220 14 30 29 63 34 72 17 30 11 38 -27 38
-40 -1 -63 -21 -78 -70 -4 -14 -19 -39 -34 -55 -14 -17 -35 -44 -46 -60 -37
-52 -137 -145 -156 -145 -36 0 -45 43 -26 118 28 111 32 166 13 181 -9 7 -16
24 -16 37 0 14 -10 30 -25 40 -62 41 -159 -38 -300 -245 -50 -74 -116 -132
-145 -129 -29 4 -38 40 -21 90 15 44 25 150 17 193 -13 68 -86 68 -161 -1 -27
-24 -53 -44 -58 -44 -6 0 -7 16 -3 38 30 168 40 235 40 287 1 60 1 60 -30 63
-18 2 -36 -3 -43 -12z m670 -323 c28 -46 27 -96 -6 -168 -26 -58 -50 -82 -94
-95 -50 -14 -65 9 -56 84 7 63 57 162 100 198 28 24 30 23 56 -19z"/>
<path d="M4432 3610 c-25 -23 -29 -68 -8 -76 8 -3 24 0 36 6 17 9 20 19 18 47
-4 44 -17 50 -46 23z"/>
<path d="M5405 3451 c-37 -17 -280 -290 -355 -400 -156 -230 -239 -306 -248
-228 -6 54 48 148 131 225 67 64 35 82 -43 24 -54 -40 -65 -53 -104 -111 -39
-60 -62 -144 -52 -186 11 -45 50 -75 96 -75 37 0 47 6 93 53 29 30 90 107 137
172 121 167 294 394 301 395 13 0 17 -41 4 -53 -7 -7 -16 -24 -20 -37 -4 -14
-19 -43 -33 -65 -33 -51 -115 -217 -138 -275 -9 -25 -19 -75 -21 -112 l-5 -68
36 0 c30 0 39 6 63 42 29 44 197 217 294 303 105 94 119 105 128 105 6 0 15 8
20 18 9 15 10 14 11 -7 0 -19 -158 -245 -232 -331 -7 -9 -33 -46 -57 -83 -25
-37 -48 -67 -53 -67 -4 0 -8 -5 -8 -12 0 -6 -6 -19 -13 -27 -8 -9 -21 -35 -31
-59 -15 -40 -15 -46 0 -77 16 -34 54 -55 99 -55 12 0 25 -3 29 -7 14 -14 102
-43 132 -43 40 0 62 -17 77 -60 36 -104 132 -191 192 -176 35 9 76 36 70 46
-3 5 -30 16 -61 26 -62 19 -110 66 -136 133 -15 38 -15 40 6 59 11 11 41 30
66 43 54 29 99 62 206 151 l81 68 89 0 c67 1 99 5 129 20 22 11 45 19 52 20 6
0 32 21 58 46 42 42 46 50 43 88 -3 38 -7 43 -48 63 -25 12 -55 22 -67 23 -46
0 -135 -45 -209 -106 -51 -43 -85 -64 -103 -64 -29 0 -82 29 -124 68 -19 18
-30 23 -38 15 -19 -19 2 -60 48 -94 68 -51 69 -60 20 -105 -140 -127 -263
-201 -279 -166 -9 20 -73 53 -113 58 -33 5 -51 2 -70 -10 -50 -33 -59 6 -21
82 25 49 127 205 215 327 128 179 191 278 191 301 0 30 -39 48 -84 38 -41 -9
-177 -124 -382 -325 -44 -43 -84 -76 -87 -72 -15 14 -5 53 30 124 21 41 40 76
43 79 10 10 79 156 109 234 26 65 29 82 19 92 -18 18 -59 25 -83 15z m943
-597 c4 -26 -31 -56 -94 -80 -36 -14 -50 -15 -70 -5 l-26 11 49 41 c57 48 79
59 113 56 17 -1 26 -9 28 -23z m-794 -360 c13 -5 14 -9 5 -20 -15 -18 -43 -18
-58 -1 -19 23 14 36 53 21z"/>
<path d="M4566 3275 c-35 -35 -24 -40 154 -69 47 -8 98 -19 114 -26 25 -9 32
-8 49 9 22 22 15 41 -14 41 -11 0 -29 5 -39 10 -17 9 -123 32 -216 47 -21 3
-36 -1 -48 -12z"/>
<path d="M1986 3247 c-14 -13 -26 -32 -26 -41 0 -17 24 -103 40 -141 5 -11 18
-51 30 -90 12 -38 28 -83 36 -98 23 -47 17 -63 -38 -101 -29 -20 -75 -55 -103
-76 -27 -22 -56 -40 -63 -40 -16 0 -41 59 -87 205 -20 66 -46 140 -56 163 -19
42 -21 43 -42 29 -26 -17 -35 -93 -15 -129 12 -23 70 -181 90 -248 5 -19 14
-40 20 -47 5 -7 9 -29 8 -50 -3 -62 -1 -73 14 -73 14 0 56 -74 56 -99 0 -7 6
-27 14 -44 7 -18 24 -61 37 -97 28 -81 57 -140 68 -140 15 0 61 41 61 55 0 11
-57 153 -104 260 -59 131 -59 140 -8 162 49 21 124 6 186 -36 56 -39 76 -65
122 -157 20 -41 40 -74 44 -74 4 0 19 9 33 20 29 23 30 16 -24 137 -16 34 -31
74 -35 90 -4 15 -10 33 -14 38 -5 6 -17 37 -28 70 -22 64 -18 86 18 105 14 7
20 21 20 44 0 43 -6 48 -46 31 -26 -10 -35 -11 -41 -2 -11 17 -33 77 -43 117
-5 19 -19 69 -30 110 -12 41 -26 95 -33 119 -15 54 -27 59 -61 28z m142 -552
c24 -50 25 -55 14 -73 -6 -9 -20 -6 -60 13 -29 14 -56 25 -60 25 -4 0 -13 5
-19 11 -9 9 -1 19 30 40 23 16 49 29 58 29 8 0 25 -20 37 -45z"/>
<path d="M2575 3091 c-77 -26 -243 -111 -249 -127 -9 -23 -7 -54 3 -54 4 0 30
12 57 26 78 41 115 60 175 87 60 28 85 50 74 67 -7 11 -29 12 -60 1z"/>
</g>
</svg>
